<?xml version="1.0" encoding="utf-8"?>
<!-- Generator: Adobe Illustrator 24.2.1, SVG Export Plug-In . SVG Version: 6.00 Build 0)  -->
<svg version="1.1" id="Layer_1" xmlns="http://www.w3.org/2000/svg" xmlns:xlink="http://www.w3.org/1999/xlink" x="0px" y="0px"
	 viewBox="0 0 723.5 555.3" style="enable-background:new 0 0 723.5 555.3;" xml:space="preserve">
<style type="text/css">
	.st0{fill:#385CA8;}
	.st1{fill:#4A87D8;}
	.st2{fill:#569FFE;}
	.st3{fill:#25426C;}
	.st4{fill:#85BCFF;}
	.st5{fill:#FBFBFB;}
	.st6{fill:#4B8ADA;}
	.st7{fill:#2A4E7E;}
	.st8{fill:#2F5089;}
	.st9{fill:#341817;}
	.st10{fill:#FD7E6D;}
	.st11{fill:none;stroke:#FFFFFF;stroke-miterlimit:10;}
	.st12{fill:#4083CA;}
	.st13{fill:none;stroke:#000000;stroke-miterlimit:10;}
	.st14{fill:#FEB829;}
	.st15{fill:#C82D30;}
	.st16{fill:#FEC648;}
	.st17{fill:#FEA816;}
	.st18{fill:#E84A4D;}
	.st19{fill:#FB7C6D;}
	.st20{fill-rule:evenodd;clip-rule:evenodd;fill:#EA8B00;}
	.st21{fill:#FFFFFF;}
	.st22{fill:none;stroke:#000000;stroke-linecap:round;stroke-miterlimit:10;}
	.st23{fill:#F3F9F9;}
	.st24{fill:#FF806F;}
	.st25{fill:none;stroke:#C54B3E;stroke-linecap:round;stroke-miterlimit:10;}
	.st26{fill:#FF806F;stroke:#FFFFFF;stroke-linecap:round;stroke-miterlimit:10;}
	.st27{fill:none;stroke:#A7B3C6;stroke-miterlimit:10;}
	.st28{fill:#331716;}
	.st29{fill:#F87A6B;}
	.st30{fill:none;stroke:#AA3C33;stroke-linecap:round;stroke-miterlimit:10;}
	.st31{fill:#4B8EDC;}
	.st32{fill:#97C6FE;}
	.st33{fill:#EB6856;}
	.st34{fill:#3B6CAE;}
	.st35{fill:#6BA9FF;}
	.st36{fill:#E08840;}
	.st37{fill:#FFB64C;}
	.st38{fill:#0C4375;}
	.st39{fill:#0C4D93;}
	.st40{fill:#C0D3FD;}
	.st41{fill:#762E18;}
	.st42{fill:#E96855;}
	.st43{fill:#EBECED;}
	.st44{fill:#FF7E6E;}
	.st45{fill:none;stroke:#688BB5;stroke-linecap:round;stroke-miterlimit:10;}
	.st46{fill:#31598C;}
	.st47{fill:#3969A9;}
	.st48{fill:#4783D9;}
	.st49{fill:#FF9398;}
	.st50{fill:none;stroke:#000000;stroke-width:0.8464;stroke-linecap:round;stroke-linejoin:round;stroke-miterlimit:10;}
	.st51{fill:#303D73;}
	.st52{fill:#FFB1B2;}
	.st53{fill:#00CA9C;}
</style>
<path class="st0" d="M665.6,523H445.3c-12.2,0-22.1-9.9-22.1-22.1V66.1c0-12.2,9.9-22.1,22.1-22.1h220.4c12.2,0,22.1,9.9,22.1,22.1
	v434.8C687.8,513.1,677.8,523,665.6,523z"/>
<rect x="433.5" y="75.8" class="st1" width="244.7" height="389.8"/>
<rect x="433.5" y="301.6" class="st2" width="244.7" height="164"/>
<polygon class="st3" points="656.4,216.8 650.5,280 563.4,280 567.5,216.5 569.9,216.5 "/>
<polygon class="st4" points="569.9,216.5 565.2,280 563.4,280 567.5,216.5 "/>
<circle class="st5" cx="555.4" cy="373.9" r="31.5"/>
<path class="st6" d="M555.7,393.8L555.7,393.8c-3,0-5.4-2.4-5.4-5.4v-31.2c0-3,2.4-5.4,5.4-5.4l0,0c3,0,5.4,2.4,5.4,5.4v31.2
	C561.1,391.4,558.7,393.8,555.7,393.8z"/>
<path class="st6" d="M534.7,372.8L534.7,372.8c0-3,2.4-5.4,5.4-5.4h31.2c3,0,5.4,2.4,5.4,5.4v0c0,3-2.4,5.4-5.4,5.4h-31.2
	C537.1,378.3,534.7,375.8,534.7,372.8z"/>
<path class="st7" d="M622.2,296.5c0,0,0.3,4.2-4.5,5c-4.8,0.8-36.8,0.1-37.3,0.1v-3.1h18.3c0,0,3.4-0.5,3.4-4.5s1.6-39.3,1.6-39.3
	h20.9L622.2,296.5z"/>
<path class="st4" d="M605.2,254.7c-0.3,7.8-1.2,35.6-1.9,40.5c-0.8,5.8-5.5,4.6-5.5,4.6h-17.4v-1.3h18.3c0,0,3.4-0.5,3.4-4.5
	s1.6-39.3,1.6-39.3H605.2z"/>
<path class="st8" d="M574.5,68h-36.9c-2.8,0-5-2.2-5-5v0c0-2.8,2.2-5,5-5h36.9c2.8,0,5,2.2,5,5v0C579.5,65.8,577.3,68,574.5,68z"/>
<path class="st9" d="M504.5,139.5c0,0-21.9-7.1-19,29.7c0,0-5.2,11.4-9.5,13.6c-4.2,2.2-3.4,10,1.4,11.3c0,0-2.4-2.6-0.3-4.9
	l3.8,5.4l56-0.3l0.9-7.6c0,0,1.4,5.3,1.3,7.2c0,0,4.5-7.1,2-11.5s-7.8-7.1-7.9-13.3c-0.1-6.2,3.9-26.6-14.4-30.4
	C513.9,138.6,504.5,139.5,504.5,139.5z"/>
<path class="st10" d="M502.5,141.5c0,0-1.3,19.7,13.7,27.5c0,0,4.9-3.6,7.6,0s-0.9,8.3-6.1,7.8c0,0-8.4,20.4,2,26.7l3.7,1.7
	l-17.9,19l-23.6-0.5l8.6-21.1c0,0,6.8-0.3,7.6-0.3c0.8,0,3.7-4.9,2.5-10.8c0,0-11.8-0.3-10.1-17.1l0.3-17.1
	C490.7,157.3,497.2,145,502.5,141.5z"/>
<circle class="st11" cx="491.7" cy="166.9" r="6.2"/>
<circle class="st11" cx="506" cy="167.9" r="6.2"/>
<line class="st11" x1="512.1" y1="168.3" x2="519" y2="167.5"/>
<path class="st12" d="M484.2,221.6c0,0,2.5,2.6,20.6,0.7c18.1-2-21.7,36.5-21.7,36.5s-4.1-7.9-3.6-12.2S484.2,221.6,484.2,221.6z"/>
<path class="st13" d="M386.2,223.1"/>
<polygon class="st14" points="370.4,316.7 363.8,321.9 364.6,262.1 368.3,260 "/>
<path class="st15" d="M348.9,236.5c0,0-13.2,7.7-11.3,28.1h3.7c0,0-1.7-18.1,8.3-24.2L348.9,236.5z"/>
<path class="st15" d="M354.9,244.3c0,0,0.3,16.3-1.2,21.5l4.1,0.9c0,0,2.1-14.1,0.9-22.3H354.9z"/>
<polygon class="st16" points="322.1,257.3 364.6,262.1 363.8,321.9 307.7,316.1 "/>
<polygon class="st17" points="328.2,254.9 322.1,257.3 364.6,262.1 368.3,260 "/>
<path class="st18" d="M344.3,236.5c0,0-13.2,7.7-11.3,28.1h3.7c0,0-1.7-18.1,8.3-24.2L344.3,236.5z"/>
<path class="st18" d="M351.1,244.3c0,0,0.3,16.3-1.2,21.5l4.1,0.9c0,0,2.1-14.1,0.9-22.3H351.1z"/>
<path class="st19" d="M383.5,225.5c0,0-16.3,2-19.1,0.7c-2.8-1.3-6-6.3-11.2-3.5s-12.1,8.4-11.7,9.8c0.4,1.3,1.7,2.5,1.5,3.4
	c-0.3,0.9-2.6,5.2,2.2,6c0,0-1.3,5.8,5.4,4.4c0,0,3.2,2.3,8.7-1.2c5.5-3.5,9.3-8.5,9.3-8.5l16.7,2.2L383.5,225.5z"/>
<circle class="st20" cx="339.2" cy="290.6" r="17.3"/>
<path class="st21" d="M337.4,301.6L337.4,301.6c-1.5-0.2-2.6-1.6-2.4-3.1l1.9-15.8c0.2-1.5,1.6-2.6,3.1-2.4h0
	c1.5,0.2,2.6,1.6,2.4,3.1l-1.9,15.8C340.3,300.7,338.9,301.7,337.4,301.6z"/>
<path class="st21" d="M328,289.6L328,289.6c0.2-1.5,1.6-2.6,3.1-2.4l15.8,1.9c1.5,0.2,2.6,1.6,2.4,3.1v0c-0.2,1.5-1.6,2.6-3.1,2.4
	l-15.8-1.9C328.9,292.6,327.8,291.2,328,289.6z"/>
<path class="st19" d="M467.1,284.4c0,0-17.9,4.3-22.1,3.9c-4.2-0.4-17.3-4.2-24-1s-13.1,11.2-13.1,11.2s1.4-0.1,6-3
	c4.6-2.9,3.8-1.1,3.8-1.1s-10,5.1-7.9,5.9c2,0.8,25.1,0,28.5-2.5c3.4-2.5,29.4,1.9,29.4,1.9L467.1,284.4z"/>
<path class="st21" d="M499.3,185.3c-4.1,0-4.3-7.6-4.3-7.6l11.6,0.1C506.5,177.8,504.8,185.3,499.3,185.3z"/>
<path class="st22" d="M501.8,159.9c0,0,2.9-2.2,4.3-0.3"/>
<path class="st22" d="M491.9,158.7c0,0,3.4-2.8,5.8,0.9"/>
<path class="st23" d="M483.5,255.2c0,0,26.8-49.3,37.8-51c0,0,9.1,1.4,11.3,1.4c2.2,0,11.2,2.1,9.2,19.1s-17,77.1-17,77.1l-60.1-0.1
	v-19.9l8.4-0.5c0,0-2.3-20.8-3.2-22.3c-0.9-1.5-5.2-13.2-3.6-17.5l-45.4,2.8L383,243l-0.8-20.2c0,0,39.9-2.6,46.1-3.1
	s47.8-13.8,50.3-15.2s10.4-1.7,11.8-1.9c1.4-0.2,2.3-0.1,2.3-0.1s-8.6,20.1-9,34.1C483.4,250.6,483.5,255.2,483.5,255.2z"/>
<path class="st24" d="M498.2,163.3c0,0-1,5.7-1.4,6.5c-0.4,0.8-1.4,1.9-1.4,1.9s-1.3,1-0.5,1.9c0.8,0.9,3.7-1.9,3.7-1.9l1-8.7
	L498.2,163.3z"/>
<path class="st25" d="M498.2,161.6c0,0-0.4,8.8-2.9,10.1s0.7,3.2,3.4,3.4"/>
<ellipse class="st9" cx="506.3" cy="165.7" rx="1.1" ry="2.1"/>
<ellipse class="st9" cx="494.9" cy="165.9" rx="0.9" ry="1.9"/>
<line class="st26" x1="497.2" y1="166.9" x2="499.6" y2="167"/>
<path class="st27" d="M531.4,207.1c0,0-13,6.6-14.7,24.2S510,280,510,280l-36.9,1.1"/>
<path class="st27" d="M479.4,208.4c0,0-4.3,18-7.6,21.3s-5.6,8.1-5.5,11.8"/>
<path class="st27" d="M388.3,224.1c0,0,0.6,17.8,2.1,18.8"/>
<line class="st27" x1="470.3" y1="284" x2="470.3" y2="301.1"/>
<path class="st27" d="M510,280c0,0,3.1,4.5,3.1,8.7"/>
<line class="st27" x1="481.5" y1="280.6" x2="483.1" y2="258.8"/>
<path class="st28" d="M111,238.1c0,0-17.2-7.8-16.2-30.2c0,0,0.8-8.4,12.2-12.3s8.6-11.3,9.5-11.3s4.9,0.7,4.3,5.8
	c0,0,6.1,0,4.6,6.5c0,0,8.8,0.6,9.8,12.7L111,238.1z"/>
<path class="st29" d="M107.2,202.6c0,0,3.3,4.5-2.7,8.8c0,0-0.6,3.4,1.3,5.7s1.8,6.5,1.5,8c0,0-8.8-3.9-9.5,3.9
	c-0.7,7.7,7.1,6,7.7,6c0.6,0,4.5,5.1,3.7,8c0,0,4.9,5.4,11.2,8.8s13.5-4.6,13.5-4.6l-0.1-3.6c0,0,7.6-0.9,8.2-5.7
	c0.6-4.8,0.6-15.2-4.9-25.4c0,0-2.4-4.3-2.4-4.8s-4.3-9.5-11.9-9.7c0,0-3.9,3-8.5,1.3C114.3,199.4,113.4,204.7,107.2,202.6z"/>
<path class="st30" d="M129.9,210.2c0,0,1,6.6,5,8.1s5.2,2.1,3.5,4.7c-1.7,2.6-5.2,2.6-5.2,2.6"/>
<g>
	<path class="st21" d="M128.5,230.7c0,0,4.4,5.6,9.3-0.5"/>
</g>
<path class="st28" d="M117.3,211.2c-3.7,2.9-1.5,6.4-1.5,6.4s0.3-4.1,6.1-6.4C121.9,211.2,120.4,208.8,117.3,211.2z"/>
<path class="st28" d="M128.4,207.7c0,0,3.9-1.5,5.5-1.2l-1.3-2.2C132.6,204.4,128.4,206,128.4,207.7z"/>
<ellipse transform="matrix(0.9049 -0.4257 0.4257 0.9049 -81.047 73.3737)" cx="123.7" cy="218" rx="1.7" ry="1.9"/>
<ellipse transform="matrix(0.9049 -0.4257 0.4257 0.9049 -78.1419 77.3263)" cx="133.9" cy="213.5" rx="1.4" ry="1.9"/>
<path class="st10" d="M313.1,486.6l20.8,22.4c0,0,11.1-6.4,12.9-12.3l-14.1-23.4L313.1,486.6z"/>
<path class="st31" d="M392.7,483.6l-54.6,40.5c-1.3-0.7-2.4-1.5-3.5-2.3c-10.6-8.2-7.2-19.4-7.2-19.4l7,7l11.3-9.7
	c0,0-3.4-3.9-5.8-8.8c-2.4-5,1.2-7.8,3-7.5c1.8,0.2,18.7,0,29.6-3.8c6.9-2.4,13.1-0.2,16.8,1.8C391.4,482.6,392.7,483.6,392.7,483.6
	z"/>
<path class="st32" d="M392.7,483.6l-54.6,40.5c-1.3-0.7-2.4-1.5-3.5-2.3l54.6-40.5C391.4,482.6,392.7,483.6,392.7,483.6z"/>
<polygon class="st33" points="265.2,475.9 268.4,509.5 289,508.9 288.6,476.1 "/>
<path class="st34" d="M331,524.3l-68.7-0.6c-0.2-1.2-0.4-2.4-0.5-3.6c-1.7-15.5,5.7-20.8,5.7-20.8l0.9,10.1l18.5-0.8
	c0,0,0.4,1.2,0.4-4.8c0-6,3.5-10.7,3.8-9.1c0.8,5.3,12.5,11.9,23.2,13.7c6.9,1.2,11.9,7.4,14.6,11.7
	C330.2,522.5,331,524.3,331,524.3z"/>
<path class="st35" d="M331,524.3l-68.7-0.6c-0.2-1.2-0.4-2.4-0.5-3.6h67C330.2,522.5,331,524.3,331,524.3z"/>
<polyline class="st36" points="58,273 91.9,266.8 160.9,384.8 231.8,391 225.5,410.5 123.9,404.2 58,273 "/>
<path class="st37" d="M58,273L58,273c5.1-2.7,11.4-0.9,14.2,4.1l67.9,121.3h85.4c5.6,0,10.2,4.6,10.2,10.2v0
	c0,5.6-4.6,10.2-10.2,10.2H132c-6.1,0-11.7-3.4-14.6-8.8L53.7,287.1C51,282,53,275.7,58,273z"/>
<polygon class="st38" points="189.3,337.3 293.2,355.1 299.2,478.5 257,478.5 255.8,384.3 146.3,366.4 "/>
<path class="st39" d="M130.1,372.6c0,0,6.8,22.7,23.2,25.8l96.3,0.3c0,0,2,6.2,5.9,5.9l71.6,86.4l32.6-18.4l-77.3-105.9l-101.9-21.8
	L130.1,372.6z"/>
<path class="st40" d="M106,254.1c0,0-4.2,1.5-10.2,3.2c-6,1.7-22.8,6.7-17.6,23.8s36.9,88.7,53.3,96.2l63.4-39.1
	c0,0-22.3-24.7-25.9-47.9l2.7-1l1-38.7l-39.4,0.3L106,254.1z"/>
<path class="st41" d="M136.3,358.9h69.3c4.6,0,8.6,3.1,9.7,7.6l40.3,158.1h-15l-38.4-148.4c-0.9-3.6-4.2-6.2-8-6.2h-48.5
	c-3.8,0-7,2.5-8,6.2L99.3,525H84.7l41.9-158.6C127.8,361.9,131.8,358.9,136.3,358.9z"/>
<path class="st42" d="M168.7,252.5c0,0,51.2-2.3,56.8-5.1s17.5-4.9,25.5-4.9c8,0,40-1,40.5-5.1c0.5-4.1,0.9-8.6,4.3-11.3
	c3.4-2.7,6.1-7.2,5.9-9.5c-0.2-2.3,3.8,1.3,3.2,4.5c-0.5,3.2-3.6,8.8-2,9.8c1.6,1.1,5,0.2,10.6-1.6c5.5-1.8,13.8-3.6,14.7-2.3
	c0.9,1.3-11.8,6.8-12.7,7.5c-0.9,0.7-1.6,3,6.6-0.2c8.2-3.2,10-2.9,10.7-2.3c0.7,0.5,1.8,2.9-15.2,8.9c0,0-1.1,1.4,1.3,1.3
	c2.3-0.2,12.2-5.7,13.1-5.2c0.9,0.5,1.6,3.4-4.8,6.3s-11.5,5-10.2,5.4c1.3,0.4,12-3.4,12-2.7s0.2,2.9-8.4,5.5c0,0-6.4,2-7.7,2.7
	c-1.3,0.7-13.1,2.3-19.9,0c-6.8-2.3-20.6,5.9-24.2,7.3c-3.6,1.4-34,10.6-39,11.1c-5,0.5-58.9,15.6-58.9,15.6L168.7,252.5z"/>
<path class="st43" d="M196.5,268.9l10.2,37c0.3,1.2,1.6,2,2.9,1.6l19.8-5.9c1.1-0.3,1.8-1.5,1.6-2.6l-6.6-36.6
	c-0.2-1.3-1.5-2.1-2.8-1.8l-23.4,5.5C197,266.4,196.2,267.7,196.5,268.9z"/>
<path class="st44" d="M130.7,301l14.9,20.2L194,300l-0.2-16l5.5-4.9l1.9,7.1c0,0,25.4-7.4,26.1-6.5c0.7,0.9-0.5,2.6-15.2,10.1
	c0,0-0.3,2,2.6,1s13.3-6.6,14-6.1s3.6,4.6-9.2,12.8c0,0,0.9,1.5,3.2,0c2.4-1.5,4.6-3.9,4.8-3.2s0.2,4.1-4.1,7.7s-14.8,5.8-17.2,6
	c-2.4,0.2-3.2,0.3-10.2,7.8s-44.6,43.1-52.8,41.1c-8.2-2-43.4-35.1-43.9-39.6L130.7,301z"/>
<path class="st21" d="M212.5,281c0.6,1.9,1.5,4.8,1.9,7.1c0.2,1.1,1.2,1.8,2.3,1.5l0,0c0.9-0.3,1.4-1.2,1.3-2.2
	c-0.3-2.1-0.9-5.7-1.6-8c-0.3-0.9-1.3-1.4-2.1-1.2l-0.5,0.1C212.8,278.7,212.2,279.9,212.5,281z"/>
<polyline class="st45" points="88.5,303 97.1,318.2 99.4,317.1 130.7,301 133.2,299.1 107.4,267.8 "/>
<path class="st46" d="M128.8,262.7c0,0,5.3,12.8,5.6,20s0.6,24.1,15.6,19.9c15-4.2,6.2-14.5,6.2-14.5l-17.6-28.3L128.8,262.7z"/>
<path class="st47" d="M110.4,243c-1.1-1.1-3.9-0.3-3.9,3.9c0,4.2-2.8,8.2-3.9,8.2c-1,0,15.9,19.9,40.6,6l-8.6-15.6
	c0,0-1,1.8-3.4,1.9C128.9,247.4,117,249.5,110.4,243z"/>
<path class="st48" d="M125.6,247.6c0,0,10.3,9.4,11,16.2c0.7,6.8,3,29.9,15.3,29.5s16.5-10.1,16.5-10.1s-0.1-4.3-4-7.3
	c-3.9-3-11.2-12.9-13.5-17.7c-2.4-4.8-5.5-15.5-16.1-12.5C124.3,248.6,125.6,247.6,125.6,247.6z"/>
<g>
	<g>
		<g>
			<path class="st48" d="M149.6,292.5c0,0,0.1,0.4,0.3,1c0.1,0.6,0.3,1.4,0.4,2.2c0.3,1.6,0.4,3.4,0.4,3.8c-0.1,0.8-0.6,1.4-1.3,1.3
				c-0.7-0.1-1.1-0.7-1.1-1.5c0-0.4,0.5-2.1,0.8-3.7c0.2-0.8,0.3-1.6,0.4-2.2C149.6,292.9,149.6,292.5,149.6,292.5z"/>
		</g>
	</g>
</g>
<g>
	<g>
		<g>
			<path class="st48" d="M154.3,298.8c0,0-0.3-1.2-0.5-2.4c-0.3-1.3-0.5-2.6-0.5-2.9c0-0.6,0.6-1.1,1.2-1.1c0.7,0,1.2,0.5,1.2,1.1
				c0,0.3-0.4,1.6-0.7,2.8C154.6,297.6,154.3,298.8,154.3,298.8z"/>
		</g>
	</g>
</g>
<g>
	<g>
		<g>
			<path class="st48" d="M159.5,297.8c0,0-0.1-0.3-0.2-0.8c-0.1-0.5-0.4-1.1-0.6-1.8c-0.5-1.3-1-2.7-1-3c-0.1-0.7,0.4-1.3,1-1.4
				c0.7-0.1,1.3,0.4,1.4,1c0,0.3,0,1.8-0.2,3.2c-0.1,0.7-0.2,1.4-0.2,1.9C159.6,297.5,159.5,297.8,159.5,297.8z"/>
		</g>
	</g>
</g>
<g>
	<g>
		<g>
			<path class="st48" d="M163.8,296.4c0.1-0.1-2.3-4.9-2.4-5.5c-0.2-0.7,0.2-1.3,0.9-1.5c0.6-0.2,1.3,0.2,1.5,0.9
				C163.9,291,164,296.4,163.8,296.4z"/>
		</g>
	</g>
</g>
<g>
	<g>
		<g>
			<path class="st48" d="M167.8,293.5c0,0,0-0.1-0.1-0.2c0-0.1-0.1-0.3-0.2-0.6c-0.2-0.5-0.6-1.1-1-1.6c-0.8-1.2-1.8-2.3-2-2.6
				c-0.3-0.6-0.2-1.3,0.4-1.7c0.6-0.4,1.3-0.1,1.7,0.5c0.2,0.3,0.7,1.8,1,3.3c0.2,0.7,0.2,1.5,0.2,2c0,0.3,0,0.5,0,0.6
				C167.8,293.4,167.8,293.5,167.8,293.5z"/>
		</g>
	</g>
</g>
<g>
	<g>
		<g>
			<path class="st48" d="M170.8,290.5c0,0,0-0.1-0.1-0.2c0-0.2-0.1-0.4-0.2-0.6c-0.2-0.5-0.5-1.1-1-1.7c-0.9-1.2-2.1-2.1-2.3-2.3
				c-0.5-0.5-0.5-1.2-0.1-1.8c0.4-0.5,1.3-0.5,1.8,0.1c0.3,0.3,1.2,1.8,1.6,3.5c0.2,0.8,0.3,1.6,0.3,2.2c0,0.3-0.1,0.5-0.1,0.7
				C170.9,290.4,170.8,290.5,170.8,290.5z"/>
		</g>
	</g>
</g>
<g>
	<path class="st49" d="M57.9,526.8h46.6c0,0,0.2-36.8-3.9-41.3h-40C60.6,485.5,55.5,506.2,57.9,526.8z"/>
	<line class="st50" x1="83" y1="346.5" x2="86.2" y2="481.1"/>
	<line class="st50" x1="74.8" y1="329.6" x2="82.6" y2="481.1"/>
	<line class="st50" x1="68.2" y1="479.9" x2="67.1" y2="423.5"/>
	<line class="st50" x1="74.8" y1="383.4" x2="75.7" y2="481.1"/>
	<path class="st51" d="M79.6,360c-4.7-2.9-18.6-2.4-25.7,15.4c-7.1,17.8-11.1,31.1-4.3,27.7c6.8-3.4,30.3-19.7,33-22.5
		C85.3,377.8,91.6,367.3,79.6,360z"/>
	<path class="st51" d="M78.7,442.4c-12.9-9.2-30.5-4.1-29.1,30.2C50.9,506.9,112,466.2,78.7,442.4z"/>
	<path class="st52" d="M82.6,481.1c-20.6,0.2-27.6,0-27.6,0s0.5,6.2,2.9,6.8s42.7,0.5,42.7,0.5s3.4-0.4,3.9-7.2H82.6z"/>
	<path class="st53" d="M69.7,463.2c-9.3-3.5-21.3-1.4-28.6,16.2c-7.3,17.6-18.2,45,2.2,32.2c20.5-12.8,30.3-16.7,34.1-25.1
		C81.1,478.2,82.6,468.2,69.7,463.2z"/>
	<path class="st53" d="M82.1,420.4c-16.3,2.8-18.1,23.2,0,37.7c18.1,14.5,30.3,26.9,36,28.8c5.6,1.9,18.2,3.6,12.6-19.9
		C125.1,443.4,122.2,413.6,82.1,420.4z"/>
	<path class="st53" d="M69.2,395.7c-10.7-9.1-26.6,3.2-32.1,19.8C31.7,432,23,460.7,42.7,445S91.6,414.6,69.2,395.7z"/>
	<path class="st53" d="M85.9,367.9c-15.6,7.7-9.9,24,3.8,29.8c13.6,5.8,47.1,23.7,42.5,9.7S110.9,355.5,85.9,367.9z"/>
	<path class="st53" d="M80.9,344.7c-0.4-11.4,11.2-13.3,19.7-11.6s24.8,6.1,22,10.2c-2.7,4.1-17.8,8.5-22,10.1
		C96.4,355,81.4,357.9,80.9,344.7z"/>
	<path class="st51" d="M50.8,318.2c10.3-6.7,29-3.6,28.8,5.8c-0.2,9.4-3.5,10.1-10.4,6.6C62.4,327.2,45,321.9,50.8,318.2z"/>
</g>
</svg>
